<?xml version="1.0" encoding="utf-8"?>
<!-- Generator: Adobe Illustrator 24.1.3, SVG Export Plug-In . SVG Version: 6.00 Build 0)  -->
<svg version="1.1" id="Layer_1" xmlns="http://www.w3.org/2000/svg" xmlns:xlink="http://www.w3.org/1999/xlink" x="0px" y="0px"
	 viewBox="0 0 135 66" style="enable-background:new 0 0 135 66;" xml:space="preserve">
<style type="text/css">
	.st0{fill:#0C2C4A;}
	.st1{fill:#2C568B;}
	.st2{fill:#6FA3CC;}
	.st3{fill:#276648;}
	.st4{fill:#DCCC49;}
	.st5{fill:#F19E1F;}
	.st6{fill:#A92428;}
</style>
<g>
	<g>
		<path class="st0" d="M19,38.2c-3.1,0-5.1-0.5-6.6-1.2l-0.9-5.2h0.7l0.7,1.2c1.5,3,3.4,4.3,6.5,4.3c3.5,0,5.4-1.7,5.4-4.5
			c0-2.5-1.4-3.8-5.6-5.2c-4.7-1.6-7-3.4-7-7.5c0-4.1,3.7-7,8.3-7c2.9,0,4.5,0.4,6.1,1l0.9,5.4h-0.7l-0.6-1.3
			c-1.4-3-3.2-4.3-5.9-4.3c-2.9,0-4.5,1.7-4.5,4.2c0,2.5,1.4,3.7,5.3,5c5.2,1.7,7.3,3.7,7.3,7.7C28.3,35.2,24,38.2,19,38.2z"/>
		<path class="st0" d="M40.7,36.1c-1.4,1.2-2.9,2.1-4.8,2.1c-2.8,0-4.2-1.2-4.2-4.2V22.5h-2.5v-0.6l2.7-1l2.7-5.4h1.1v5.5h4.6v1.5
			h-4.6v11.4c0,1.7,0.8,2.5,2.2,2.5c0.9,0,1.5-0.2,2.4-0.9L40.7,36.1z"/>
		<path class="st0" d="M50.4,38.3c-5,0-8.7-3.2-8.7-9.1c0-5,3.6-8.8,8.7-8.8c4.9,0,8.7,3.2,8.7,9.1C59.1,34.4,55.5,38.3,50.4,38.3z
			 M49.9,21.3c-2.4,0-3.8,1.9-3.8,6.9c0,5.6,1.8,9.2,4.8,9.2c2.5,0,3.8-1.9,3.8-6.9C54.7,24.9,52.9,21.3,49.9,21.3z"/>
		<path class="st0" d="M80.3,37.9c-0.8,0-2.8,0-4.4,0c-1.5,0-3.6,0-4.4,0v-0.5l0.6-0.1c1.5-0.3,1.8-0.8,1.8-3.9v-6.8
			c0-2.6-1.2-3.9-3.2-3.9c-1.4,0-2.6,0.5-3.6,1.3v9.4c0,3.2,0.2,3.6,1.8,3.9l0.6,0.1v0.5c-0.9,0-2.9,0-4.4,0s-3.6,0-4.4,0v-0.5
			l0.7-0.1c1.4-0.2,1.7-0.8,1.7-4.2v-7.5c0-1.9-0.3-2.4-1.6-3l-0.9-0.4v-0.4l6-1.3l0.5,0.3v2.4c1.9-1.6,3.7-2.7,5.9-2.7
			c3.2,0,4.9,1.7,4.9,5.3v7.2c0,3.5,0.3,3.9,1.8,4.2l0.6,0.1L80.3,37.9L80.3,37.9z"/>
		<path class="st0" d="M85.3,27.7V28c0.1,4.9,2.8,7.9,6.4,7.9c2,0,3.3-0.7,4.8-2.2l0.5,0.4c-1.9,2.6-4.3,4.2-7.4,4.2
			c-4.6,0-8-3.1-8-8.5c0-5.8,4.3-9.4,8.5-9.4c4.6,0,6.9,2.6,7,7.4L85.3,27.7L85.3,27.7z M92.8,26.8c-0.1-3.6-1.4-5.4-3.5-5.4
			c-2.3,0-3.8,2-4.1,5.5C85.3,26.8,92.8,26.8,92.8,26.8z"/>
		<path class="st0" d="M122.2,37.9c-0.6,0-3.7-0.1-4.9-0.1c-1.3,0-5.1,0.1-5.8,0.1v-0.5l1.1-0.2c1.1-0.2,1.5-0.5,1.5-1.1
			c0-0.6-0.3-1.2-1.1-2.4l-3.8-5.9l-3.8,5.3c-0.9,1.2-1.3,2.2-1.3,2.8s0.4,1.1,1.5,1.3l1.1,0.2v0.5c-0.6,0-3.4-0.1-4.6-0.1
			s-3.2,0.1-3.8,0.1v-0.5l0.6-0.1c1.6-0.3,3-1.6,4.2-3.1l5.6-7.3l-5.5-8.1c-1.3-1.9-2.2-2.8-3.6-3l-0.7-0.1v-0.5
			c0.6,0,3.7,0.1,4.9,0.1c1.3,0,5.1-0.1,5.7-0.1v0.5l-1.1,0.2c-0.9,0.1-1.5,0.5-1.5,1.1c0,0.6,0.3,1.2,1.1,2.4l3.3,5.1l3.2-4.5
			c0.9-1.2,1.3-2.2,1.3-2.8c0-0.7-0.4-1.1-1.5-1.3l-1.1-0.2v-0.5c0.6,0,3.4,0.1,4.6,0.1s3.2-0.1,3.8-0.1v0.5l-0.6,0.1
			c-1.6,0.3-2.9,1.5-4.2,3.1l-5,6.6l6.1,8.9c1.3,1.9,2.2,2.8,3.6,3l0.7,0.1L122.2,37.9L122.2,37.9z"/>
	</g>
	<rect x="27.4" y="45.7" class="st1" width="15.9" height="4.4"/>
	<rect x="43.3" y="45.7" class="st2" width="15.9" height="4.4"/>
	<rect x="59.2" y="45.7" class="st3" width="15.9" height="4.4"/>
	<rect x="75.1" y="45.7" class="st4" width="15.9" height="4.4"/>
	<rect x="91.1" y="45.7" class="st5" width="15.9" height="4.4"/>
	<rect x="107" y="45.7" class="st6" width="15.9" height="4.4"/>
	<rect x="11.4" y="45.7" class="st0" width="15.9" height="4.4"/>
	<g>
		<path class="st0" d="M125.4,17.9v-2.3h-0.9v-0.4h2.2v0.4h-0.9v2.3H125.4z M127,17.9v-2.7h0.7l0.7,2.1l0.7-2.1h0.6v2.7h-0.4v-2.3
			l-0.7,2.3h-0.4l-0.7-2.3v2.3H127z"/>
	</g>
</g>
</svg>
