<svg id="Layer_1" data-name="Layer 1" xmlns="http://www.w3.org/2000/svg" viewBox="0 0 598.911 70.808">
  <defs>
    <style>
      .cls-1 {
        fill: #114e4f;
      }

      .cls-2 {
        fill: none;
        stroke: #114e4f;
        stroke-linecap: round;
        stroke-linejoin: round;
        stroke-width: 1.263px;
      }

      .cls-3 {
        fill: #c6aa7f;
      }
    </style>
  </defs>
  <title>logo</title>
  <g>
    <path class="cls-1" d="M133.251,16.509v7.1h-11.9V49.492h-8.61V23.613H100.934v-7.1Z"/>
    <path class="cls-1" d="M171.7,16.509v6.869H154.289v6.163H170v6.823l-15.715.047v6.211h17.88v6.869h-26.49V16.509Z"/>
    <path class="cls-1" d="M206.015,49.492l-4.8-9.128h-6.4v9.128h-8.61V16.509h14.822c8.752,0,13.739,4.234,13.739,11.574,0,4.987-2.07,8.657-5.881,10.634l6.869,10.774Zm-11.2-16h6.258c3.482,0,5.5-1.789,5.5-5.129,0-3.247-2.023-4.987-5.5-4.987h-6.258Z"/>
    <path class="cls-1" d="M248.627,49.492l-4.8-9.128h-6.4v9.128h-8.61V16.509H243.64c8.752,0,13.739,4.234,13.739,11.574,0,4.987-2.07,8.657-5.881,10.634l6.869,10.774Zm-11.2-16h6.258c3.482,0,5.5-1.789,5.5-5.129,0-3.247-2.023-4.987-5.5-4.987h-6.258Z"/>
    <path class="cls-1" d="M291.909,43.658H277.652l-2.306,5.834H266.5l14.163-32.983h8.845l13.833,32.983h-9.175Zm-2.541-6.587-4.517-11.763L280.24,37.071Z"/>
    <path class="cls-1" d="M373.789,30.6l-.232,1.1h-.346a2.764,2.764,0,0,0-1.811.475,2.439,2.439,0,0,0-.745,1.413l-2.723,12.892a4.62,4.62,0,0,0-.115.732q0,1.052,1.9,1.053h.334l-.231,1.1h-7.653l.206-1.1h.346a2.3,2.3,0,0,0,2.581-1.887l2.735-12.892a3.969,3.969,0,0,0,.1-.732q0-1.052-1.9-1.053H365.9l.232-1.1Z"/>
    <path class="cls-1" d="M381.244,49.378h-2.452L381,38.81a5.969,5.969,0,0,0,.154-1.182q0-1.244-1.835-1.245h-.206l.231-1.1h4.868l-.706,3.313h.256q2.132-3.544,4.79-3.545,2.812,0,2.812,2.915a15.179,15.179,0,0,1-.475,2.889l-.682,3.107a13.144,13.144,0,0,0-.346,2.761q0,1.257.924,1.259a3.16,3.16,0,0,0,1.683-.6l.475.77a5.078,5.078,0,0,1-3.21,1.489,2.249,2.249,0,0,1-1.74-.706,2.721,2.721,0,0,1-.648-1.913,18.684,18.684,0,0,1,.5-3.556l.6-2.723a11.245,11.245,0,0,0,.386-2.452q0-1.555-1.207-1.554-1.464,0-3,1.977a10.044,10.044,0,0,0-1.971,3.942Z"/>
    <path class="cls-1" d="M401.181,37.782a1.592,1.592,0,0,0-1.823-1.4H399.1l.2-1.1h3.942l1.22,7.782q.462,2.979.6,4.661h.076a19.353,19.353,0,0,0,3.4-4.41,8.936,8.936,0,0,0,1.437-4.052,2.213,2.213,0,0,0-.449-1.463,1.463,1.463,0,0,0-1.182-.54,2.216,2.216,0,0,1,.514-1.528,1.635,1.635,0,0,1,1.271-.577q1.786,0,1.785,2.439a11.746,11.746,0,0,1-1.817,5.592,29.824,29.824,0,0,1-4.731,6.169l-2.363.258Z"/>
    <path class="cls-1" d="M429.129,46.09a.714.714,0,0,1,.269.655,2.53,2.53,0,0,1-1.239,1.972,5.456,5.456,0,0,1-3.319.917,4.941,4.941,0,0,1-3.71-1.451,5.463,5.463,0,0,1-1.413-3.98,10.074,10.074,0,0,1,2.221-6.311,6.816,6.816,0,0,1,5.611-2.87,3.828,3.828,0,0,1,2.587.8,2.785,2.785,0,0,1,.918,2.222,4.525,4.525,0,0,1-2.215,3.71,9.08,9.08,0,0,1-5.412,1.579h-.449a4.509,4.509,0,0,1-.476-.025,8.553,8.553,0,0,0-.051,1.1q0,3.568,2.888,3.57A4.719,4.719,0,0,0,429.129,46.09ZM422.747,42.1H423a6.22,6.22,0,0,0,3.832-1.129,3.5,3.5,0,0,0,1.509-2.927q0-1.76-1.528-1.76a3.023,3.023,0,0,0-2.375,1.6A12.109,12.109,0,0,0,422.747,42.1Z"/>
    <path class="cls-1" d="M447.382,39.169a3.346,3.346,0,0,0-.622-2.119,2.085,2.085,0,0,0-1.74-.8,2.638,2.638,0,0,0-1.867.635,2.114,2.114,0,0,0-.688,1.625A1.967,1.967,0,0,0,443.119,40a7.221,7.221,0,0,0,2.029,1.22q3.158,1.413,3.158,4.084a3.826,3.826,0,0,1-1.489,3.133,6.144,6.144,0,0,1-3.955,1.193,5.533,5.533,0,0,1-3.165-.8,2.5,2.5,0,0,1-1.175-2.163,1.691,1.691,0,0,1,.47-1.291,1.655,1.655,0,0,1,1.187-.443,3.734,3.734,0,0,0,.79,2.536,2.781,2.781,0,0,0,2.215.9q2.836,0,2.838-2.439a2.236,2.236,0,0,0-.6-1.585,6.649,6.649,0,0,0-2.054-1.316,6.3,6.3,0,0,1-2.537-1.855,3.854,3.854,0,0,1-.648-2.215,3.42,3.42,0,0,1,1.406-2.819,5.784,5.784,0,0,1,3.666-1.1,5.438,5.438,0,0,1,3.024.72,2.092,2.092,0,0,1,1.085,1.771Q449.359,39.169,447.382,39.169Z"/>
    <path class="cls-1" d="M462.708,47.4l.45.975a6.094,6.094,0,0,1-3.545,1.259q-2.862,0-2.863-3.068a10.814,10.814,0,0,1,.258-2.209l1.6-7.576h-2l.244-1.054q2.568,0,4.018-3.684h1.208l-.682,3.236h3.185l-.322,1.5h-3.184l-1.593,7.5a12.139,12.139,0,0,0-.32,2.261,1.254,1.254,0,0,0,1.4,1.438A4.516,4.516,0,0,0,462.708,47.4Z"/>
    <path class="cls-1" d="M471.9,36.383l.231-1.1h4.714l-1.785,8.448a15.175,15.175,0,0,0-.4,2.915q0,1.335.873,1.336a3.891,3.891,0,0,0,1.887-.682l.476.77a5.532,5.532,0,0,1-3.557,1.567,1.976,1.976,0,0,1-1.579-.706,2.644,2.644,0,0,1-.6-1.785,24.854,24.854,0,0,1,.592-4.134l1.013-4.828a3.454,3.454,0,0,0,.09-.693q0-1.106-1.6-1.1Zm4.264-3.737a1.288,1.288,0,0,1-1.477-1.437,2,2,0,0,1,.43-1.342,1.429,1.429,0,0,1,1.149-.507,1.294,1.294,0,0,1,1.477,1.451,1.914,1.914,0,0,1-.444,1.367A1.488,1.488,0,0,1,476.16,32.646Z"/>
    <path class="cls-1" d="M495.865,49.378h-2.5a24.428,24.428,0,0,1,.334-2.729q.335-2.137.566-3.19l.6-2.723a11.245,11.245,0,0,0,.386-2.452q0-1.555-1.207-1.554-1.464,0-3.011,2a9.838,9.838,0,0,0-1.959,3.922l-1.413,6.729h-2.452l2.208-10.567a5.97,5.97,0,0,0,.154-1.182q0-1.244-1.835-1.245h-.206l.231-1.1h4.868l-.706,3.313h.256q2.132-3.544,4.79-3.545,2.812,0,2.812,2.915a3.8,3.8,0,0,1-.052.63h.258q2.143-3.544,4.789-3.545,2.812,0,2.813,2.915a15.109,15.109,0,0,1-.476,2.889l-.68,3.107a13.016,13.016,0,0,0-.334,2.761q0,1.257.912,1.259a3.16,3.16,0,0,0,1.683-.6l.475.77a4.937,4.937,0,0,1-3.21,1.489,2.254,2.254,0,0,1-1.734-.706,2.7,2.7,0,0,1-.655-1.913,18.761,18.761,0,0,1,.5-3.556l.45-2.055a22.115,22.115,0,0,0,.552-3.12q0-1.555-1.22-1.554a3.88,3.88,0,0,0-2.786,1.727,10.425,10.425,0,0,0-2.017,3.615l-.424,1.887q-.166.719-.462,2.812T495.865,49.378Z"/>
    <path class="cls-1" d="M523.416,46.09a.714.714,0,0,1,.269.655,2.53,2.53,0,0,1-1.239,1.972,5.456,5.456,0,0,1-3.319.917,4.941,4.941,0,0,1-3.71-1.451A5.463,5.463,0,0,1,514,44.2a10.074,10.074,0,0,1,2.221-6.311,6.816,6.816,0,0,1,5.611-2.87,3.828,3.828,0,0,1,2.587.8,2.785,2.785,0,0,1,.918,2.222,4.525,4.525,0,0,1-2.215,3.71,9.08,9.08,0,0,1-5.412,1.579h-.449a4.509,4.509,0,0,1-.476-.025,8.553,8.553,0,0,0-.051,1.1q0,3.568,2.888,3.57A4.719,4.719,0,0,0,523.416,46.09ZM517.034,42.1h.258a6.22,6.22,0,0,0,3.832-1.129,3.5,3.5,0,0,0,1.509-2.927q0-1.76-1.528-1.76a3.023,3.023,0,0,0-2.375,1.6A12.109,12.109,0,0,0,517.034,42.1Z"/>
    <path class="cls-1" d="M533.657,49.378h-2.452l2.208-10.567a5.969,5.969,0,0,0,.154-1.182q0-1.244-1.835-1.245h-.206l.231-1.1h4.868l-.706,3.313h.256q2.132-3.544,4.79-3.545,2.812,0,2.812,2.915a15.179,15.179,0,0,1-.475,2.889l-.682,3.107a13.144,13.144,0,0,0-.346,2.761q0,1.257.924,1.259a3.16,3.16,0,0,0,1.683-.6l.475.77a5.078,5.078,0,0,1-3.21,1.489,2.249,2.249,0,0,1-1.74-.706,2.721,2.721,0,0,1-.648-1.913,18.684,18.684,0,0,1,.5-3.556l.6-2.723a11.245,11.245,0,0,0,.386-2.452q0-1.555-1.207-1.554-1.464,0-3,1.977a10.044,10.044,0,0,0-1.971,3.942Z"/>
    <path class="cls-1" d="M558.448,47.4l.45.975a6.094,6.094,0,0,1-3.545,1.259q-2.862,0-2.863-3.068a10.814,10.814,0,0,1,.258-2.209l1.6-7.576h-2l.244-1.054q2.568,0,4.018-3.684h1.208l-.682,3.236h3.185l-.322,1.5h-3.184l-1.593,7.5a12.139,12.139,0,0,0-.32,2.261,1.254,1.254,0,0,0,1.4,1.438A4.516,4.516,0,0,0,558.448,47.4Z"/>
    <path class="cls-1" d="M575.494,35.022a4.817,4.817,0,0,1,3.66,1.4,5.638,5.638,0,0,1,1.336,4.044,10.236,10.236,0,0,1-2.145,6.337,6.736,6.736,0,0,1-5.637,2.831A4.817,4.817,0,0,1,569,48.2a5.646,5.646,0,0,1-1.335-3.994,10.184,10.184,0,0,1,2.163-6.363A6.811,6.811,0,0,1,575.494,35.022ZM573,48.351q2.171,0,3.461-2.575a12.554,12.554,0,0,0,1.291-5.707q0-3.661-2.569-3.66-2.145,0-3.466,2.58a12.394,12.394,0,0,0-1.323,5.74Q570.4,48.35,573,48.351Z"/>
    <path class="cls-1" d="M596.933,39.169a3.346,3.346,0,0,0-.622-2.119,2.085,2.085,0,0,0-1.74-.8,2.638,2.638,0,0,0-1.867.635,2.114,2.114,0,0,0-.688,1.625A1.967,1.967,0,0,0,592.671,40a7.221,7.221,0,0,0,2.029,1.22q3.158,1.413,3.158,4.084a3.826,3.826,0,0,1-1.489,3.133,6.144,6.144,0,0,1-3.955,1.193,5.533,5.533,0,0,1-3.165-.8,2.5,2.5,0,0,1-1.175-2.163,1.691,1.691,0,0,1,.47-1.291,1.655,1.655,0,0,1,1.187-.443,3.734,3.734,0,0,0,.79,2.536,2.781,2.781,0,0,0,2.215.9q2.836,0,2.837-2.439a2.236,2.236,0,0,0-.6-1.585,6.649,6.649,0,0,0-2.054-1.316,6.3,6.3,0,0,1-2.537-1.855,3.854,3.854,0,0,1-.648-2.215,3.42,3.42,0,0,1,1.406-2.819,5.784,5.784,0,0,1,3.666-1.1,5.438,5.438,0,0,1,3.024.72,2.092,2.092,0,0,1,1.085,1.771Q598.911,39.169,596.933,39.169Z"/>
    <line class="cls-2" x1="333.423" y1="4.461" x2="333.423" y2="60.486"/>
    <path class="cls-3" d="M3.044,49.736a35.528,35.528,0,0,0,32.38,21.072c.949,0,1.937-.04,2.886-.119-14.668-4.547-22.179-20.084-19.1-34.673-.04,6.642,2.333,14.035,7.354,20.914A47.107,47.107,0,0,0,41.433,70.254a31.8,31.8,0,0,0,3.361-.751C29.77,61.359,19.056,45.861,20.914,32.735a103.057,103.057,0,0,0-17.87,17"/>
    <path class="cls-1" d="M35.424,0A35.379,35.379,0,0,0,1.9,46.81C4.586,33.8,31.786,7.275,59.54,9.528a36.45,36.45,0,0,0-5.733-4.349c-9.449-.553-22.891,4.744-34.831,14.549A67.37,67.37,0,0,0,3.637,37.084,66.06,66.06,0,0,1,18.621,17.356C27.477,9.172,37.4,3.637,45.822,1.581A34.856,34.856,0,0,0,35.424,0Z"/>
    <path class="cls-3" d="M42.975,58.789a52.465,52.465,0,0,0,7.512,8.619A35.519,35.519,0,0,0,70.808,35.384c0-7.512-1.27-13.318-5.817-19.407C41.31,20.88,25.224,33.17,42.975,58.789"/>
  </g>
</svg>
